<svg preserveAspectRatio="none" width="100%" height="100%" overflow="visible" style="display: block;" viewBox="0 0 72.5652 18.1445" fill="none" xmlns="http://www.w3.org/2000/svg">
<g id="lattice">
<path id="Lattice" fill-rule="evenodd" clip-rule="evenodd" d="M2.84598 0.0969H0V17.9023H10.4277V15.2133H2.84598V0.0969ZM16.5871 5.45062C18.3174 5.45062 19.4786 6.2016 20.1161 7.12215L20.2527 5.69287H22.7116V17.9023H20.2527L20.1161 16.473C19.4786 17.3935 18.3174 18.1445 16.5871 18.1445C13.4679 18.1445 11.3504 15.4555 11.3504 11.7976C11.3504 8.11537 13.4679 5.45062 16.5871 5.45062ZM17.179 8.01847C15.4031 8.01847 14.1281 9.4962 14.1281 11.7976C14.1281 14.0989 15.4031 15.5767 17.179 15.5767C18.5451 15.5767 19.3647 14.8015 19.9795 13.7598V9.83535C19.3647 8.79367 18.5451 8.01847 17.179 8.01847ZM29.5996 1.59885H26.8674V5.69287H24.7045V8.16382H26.8674V13.5902C26.8674 16.5457 28.5295 18.1445 31.1478 18.1445C32.2862 18.1445 33.1286 17.8054 33.6978 17.4178L32.9692 15.1406C32.6277 15.3586 32.1268 15.5282 31.3982 15.5282C30.3281 15.5282 29.5996 14.8015 29.5996 13.566V8.16382H33.0603V5.69287H29.5996V1.59885ZM39.0147 1.59885H36.2826V5.69287H34.1196V8.16382H36.2826V13.5902C36.2826 16.5457 37.9446 18.1445 40.5629 18.1445C41.7013 18.1445 42.5438 17.8054 43.113 17.4178L42.3844 15.1406C42.0429 15.3586 41.542 15.5282 40.8134 15.5282C39.7433 15.5282 39.0147 14.8015 39.0147 13.566V8.16382H42.4754V5.69287H39.0147V1.59885ZM47.6786 5.69287H44.9464V17.9023H47.6786V5.69287ZM46.3125 0C45.3563 0 44.6277 0.750975 44.6277 1.79265C44.6277 2.83432 45.3563 3.5853 46.3125 3.5853C47.2915 3.5853 48.0201 2.83432 48.0201 1.79265C48.0201 0.750975 47.2915 0 46.3125 0ZM55.9326 5.45062C52.4036 5.45062 50.0585 8.11537 50.0585 11.7976C50.0585 15.4555 52.4263 18.1445 55.9554 18.1445C58.0272 18.1445 59.5982 17.1513 60.6228 15.4555L58.6647 13.8325C58.1183 14.8015 57.2304 15.6009 55.9781 15.6009C53.9518 15.6009 52.8362 13.9294 52.8362 11.7976C52.8362 9.64155 53.9063 7.99425 55.9554 7.99425C57.2304 7.99425 58.0728 8.76945 58.5964 9.73845L60.5772 8.1396C59.5527 6.44385 58.0272 5.45062 55.9326 5.45062ZM67.3058 5.45062C70.8348 5.45062 72.5652 8.26072 72.5652 11.6764V12.6939H64.4598C64.5281 14.6319 65.621 15.6978 67.5335 15.6978C68.8768 15.6978 69.8558 15.0679 70.3795 14.2927L72.2692 15.94C71.1308 17.3935 69.6281 18.1445 67.5107 18.1445C63.9589 18.1445 61.6821 15.4798 61.6821 11.8218C61.6821 8.1396 64.0045 5.45062 67.3058 5.45062ZM67.2603 7.77622C65.6438 7.77622 64.5509 8.9148 64.4598 10.6105H69.8786C69.8103 8.93902 68.8996 7.77622 67.2603 7.77622Z" fill="var(--fill-0, white)" fill-opacity="0.8"/>
</g>
</svg>
