<svg preserveAspectRatio="none" width="100%" height="100%" overflow="visible" style="display: block;" viewBox="0 0 67 21" fill="none" xmlns="http://www.w3.org/2000/svg">
<g id="logo-rakuten" clip-path="url(#clip0_402_51)">
<path id="Vector" d="M16.6289 21L53.8825 17.5992H13.4L16.6289 21Z" fill="var(--fill-0, white)" fill-opacity="0.8"/>
<path id="Vector_2" d="M62.5198 3.57086C61.7556 3.58966 61.0128 3.84061 60.3807 4.29353V3.82592H57.8783V15.3887H60.3807V8.62956C60.3631 8.33344 60.4032 8.03665 60.4987 7.7575C60.5942 7.47836 60.743 7.22277 60.9358 7.00651C61.1287 6.79024 61.3616 6.61788 61.6201 6.50007C61.8787 6.38225 62.1574 6.32146 62.4391 6.32146C62.7208 6.32146 62.9996 6.38225 63.2581 6.50007C63.5167 6.61788 63.7495 6.79024 63.9424 7.00651C64.1353 7.22277 64.2841 7.47836 64.3795 7.7575C64.475 8.03665 64.5152 8.33344 64.4976 8.62956V15.4312H67V8.62956C67 5.8239 65.1837 3.57086 62.5198 3.57086Z" fill="var(--fill-0, white)" fill-opacity="0.8"/>
<path id="Vector_3" d="M52.1067 3.52836C49.2007 3.52836 47.1423 6.20649 47.1423 9.6073C47.1423 13.1782 49.7254 15.6863 52.3489 15.6863C53.6808 15.6863 55.3356 15.2186 56.7483 13.0931L54.5284 11.7328C52.8332 14.3684 49.9676 13.0506 49.6447 10.3725H56.829C57.4748 6.29151 54.932 3.52836 52.1067 3.52836ZM49.8061 8.11945C50.3308 5.44131 53.8019 5.27127 54.2862 8.11945H49.8061Z" fill="var(--fill-0, white)" fill-opacity="0.8"/>
<path id="Vector_4" d="M41.4271 11.9928C41.4049 12.5227 41.4842 13.0518 41.6604 13.5487C41.8366 14.0456 42.106 14.5 42.4525 14.8849C42.7991 15.2697 43.2157 15.5771 43.6775 15.7886C44.1393 16.0002 44.6368 16.1116 45.1404 16.1162C45.9912 16.0849 46.8221 15.8369 47.5621 15.3936L45.9476 13.098C45.6997 13.2843 45.4045 13.388 45.1 13.3956C44.9337 13.3906 44.7702 13.3496 44.6196 13.2751C44.469 13.2007 44.3346 13.0943 44.2247 12.9627C44.1149 12.831 44.032 12.677 43.9812 12.5101C43.9304 12.3432 43.9128 12.1671 43.9295 11.9928V7.01908H46.0687V4.25592H43.9295V1.36523H41.4271V4.25592H40.0952V7.01908H41.4271V11.9928Z" fill="var(--fill-0, white)" fill-opacity="0.8"/>
<path id="Vector_5" d="M34.9935 15.6862C35.7577 15.6674 36.5006 15.4165 37.1326 14.9636V15.3887H39.635V3.82592H37.1326V10.6275C37.1502 10.9237 37.1101 11.2205 37.0146 11.4996C36.9191 11.7787 36.7703 12.0343 36.5775 12.2506C36.3846 12.4669 36.1517 12.6392 35.8932 12.757C35.6346 12.8749 35.3559 12.9356 35.0742 12.9356C34.7925 12.9356 34.5138 12.8749 34.2552 12.757C33.9967 12.6392 33.7638 12.4669 33.5709 12.2506C33.378 12.0343 33.2293 11.7787 33.1338 11.4996C33.0383 11.2205 32.9981 10.9237 33.0158 10.6275V3.82592H30.5133V10.6275C30.5133 13.4332 32.3296 15.6862 34.9935 15.6862Z" fill="var(--fill-0, white)" fill-opacity="0.8"/>
<path id="Vector_6" d="M23.6113 10.67L27.3246 15.4312H30.7957L25.8312 9.26721L30.1095 3.82591H26.6385L23.6113 7.86437V0H21.0686V15.4312H23.6113V10.67Z" fill="var(--fill-0, white)" fill-opacity="0.8"/>
<path id="Vector_7" d="M17.1536 14.8786V15.3887H19.6561V3.82593H17.1536V4.33605C16.4717 3.81774 15.6536 3.53549 14.8127 3.52836C11.9874 3.52836 9.80787 6.249 9.80787 9.6073C9.80787 12.9656 11.947 15.6863 14.8127 15.6863C15.6547 15.6857 16.4746 15.4028 17.1536 14.8786V14.8786ZM12.3506 9.64981C12.3506 7.82188 13.3597 6.37653 14.7723 6.37653C16.185 6.37653 17.1536 7.82188 17.1536 9.64981C17.1536 11.4777 16.185 12.9231 14.7723 12.9231C13.3597 12.9231 12.3506 11.4777 12.3506 9.64981Z" fill="var(--fill-0, white)" fill-opacity="0.8"/>
<path id="Vector_8" d="M9.0006 5.90891C8.99953 4.59015 8.50166 3.32573 7.6163 2.39322C6.73093 1.46072 5.53041 0.936347 4.27831 0.935222H0V15.3887H2.62349V10.9251H4.43976L7.62831 15.3887H10.8976L7.02289 9.98988C7.64123 9.52872 8.14418 8.91652 8.48863 8.20576C8.83308 7.49499 9.00875 6.70686 9.0006 5.90891ZM4.31867 8.20445H2.62349V3.69838H4.31867C4.88601 3.69838 5.43012 3.93575 5.83129 4.35828C6.23246 4.7808 6.45783 5.35387 6.45783 5.95142C6.45783 6.54896 6.23246 7.12203 5.83129 7.54455C5.43012 7.96708 4.88601 8.20445 4.31867 8.20445V8.20445Z" fill="var(--fill-0, white)" fill-opacity="0.8"/>
</g>
<defs>
<clipPath id="clip0_402_51">
<rect width="67" height="21" fill="white"/>
</clipPath>
</defs>
</svg>
