<svg preserveAspectRatio="none" width="100%" height="100%" overflow="visible" style="display: block;" viewBox="0 0 87 17" fill="none" xmlns="http://www.w3.org/2000/svg">
<g id="logo-zendesk" clip-path="url(#clip0_402_10)">
<path id="Vector" d="M57.856 14.6831C59.0092 14.7083 60.1251 14.2658 60.9589 13.4525L62.4986 15.1441C61.4813 16.2103 60.0752 17 57.8835 17C54.1285 17 51.7051 14.4586 51.7051 11.0193C51.69 10.2485 51.824 9.48221 52.0994 8.76428C52.3748 8.04636 52.7862 7.39089 53.3101 6.8354C53.8339 6.27991 54.46 5.83529 55.1524 5.52699C55.8448 5.21869 56.59 5.05275 57.3454 5.03868H57.5535C61.281 5.03868 63.3941 7.9328 63.2095 11.9493H54.3878C54.702 13.6168 55.8489 14.6791 57.856 14.6791V14.6831ZM60.5426 10.0212C60.3069 8.46593 59.3957 7.31951 57.5693 7.31951C56.802 7.27377 56.0465 7.52745 55.4557 8.02913C54.8649 8.53081 54.4832 9.24295 54.3878 10.0212H60.5426Z" fill="var(--fill-0, white)" fill-opacity="0.8"/>
<path id="Vector_2" d="M0 14.5588L6.78325 7.52792H0.161038V5.31924H9.92546V7.57201L3.14221 14.6029H10.0158V16.8076H0V14.5588Z" fill="var(--fill-0, white)" fill-opacity="0.8"/>
<path id="Vector_3" d="M17.6318 14.6831C18.785 14.7083 19.9009 14.2658 20.7348 13.4525L22.2745 15.1441C21.2572 16.2103 19.851 17 17.6593 17C13.9044 17 11.481 14.4586 11.481 11.0193C11.4658 10.2492 11.5996 9.48352 11.8745 8.7661C12.1494 8.04869 12.5601 7.39358 13.0831 6.83819C13.6062 6.28281 14.2313 5.83803 14.9228 5.52926C15.6144 5.22049 16.3587 5.05379 17.1134 5.03868H17.3215C21.049 5.03868 23.1621 7.9328 22.9775 11.9493H14.1636C14.4778 13.6168 15.6247 14.6791 17.6318 14.6791V14.6831ZM20.3184 10.0212C20.0828 8.46593 19.1715 7.31951 17.3451 7.31951C16.5779 7.27377 15.8223 7.52745 15.2315 8.02913C14.6408 8.53081 14.259 9.24295 14.1636 10.0212H20.3184Z" fill="var(--fill-0, white)" fill-opacity="0.8"/>
<path id="Vector_4" d="M37.6162 11.0314C37.6162 7.35558 40.3067 5.05871 43.2683 5.05871C43.9788 5.04934 44.6828 5.19877 45.3308 5.49654C45.9788 5.7943 46.5551 6.23317 47.0193 6.78236V0H49.4152V16.7755H47.0193V15.1721C46.5638 15.7443 45.9881 16.2047 45.3347 16.519C44.6813 16.8333 43.967 16.9936 43.2447 16.988C42.4994 16.9822 41.7624 16.8267 41.076 16.5302C40.3896 16.2338 39.7671 15.8023 39.244 15.2603C38.721 14.7184 38.3077 14.0766 38.0277 13.3716C37.7478 12.6666 37.6066 11.9123 37.6123 11.1516C37.6123 11.1035 37.6123 11.0594 37.6123 11.0153L37.6162 11.0314ZM47.1528 10.9913C47.1378 10.0184 46.7466 9.09094 46.0645 8.41108C45.3824 7.73122 44.4647 7.35404 43.5112 7.3617C42.5578 7.36937 41.646 7.76127 40.9745 8.45202C40.303 9.14276 39.9262 10.0764 39.9262 11.0494C39.9262 12.0224 40.303 12.956 40.9745 13.6468C41.646 14.3375 42.5578 14.7294 43.5112 14.7371C44.4647 14.7448 45.3824 14.3676 46.0645 13.6877C46.7466 13.0079 47.1378 12.0804 47.1528 11.1075V10.9913Z" fill="var(--fill-0, white)" fill-opacity="0.8"/>
<path id="Vector_5" d="M64.7611 14.3384L66.9292 13.1879C67.2168 13.7094 67.6384 14.141 68.1484 14.4363C68.6585 14.7315 69.2378 14.8792 69.824 14.8635C71.1791 14.8635 71.8821 14.154 71.8821 13.3483C71.8821 12.4303 70.5703 12.2219 69.1327 11.9253C67.212 11.5244 65.2049 10.867 65.2049 8.50201C65.2049 6.68616 66.8978 5.01062 69.5687 5.03066C71.67 5.03066 73.2294 5.88046 74.1131 7.25938L72.1296 8.38576C71.8514 7.96544 71.4727 7.62448 71.0294 7.39512C70.5861 7.16576 70.0928 7.05557 69.5962 7.07499C68.3079 7.07499 67.6519 7.72035 67.6519 8.45391C67.6519 9.27966 68.6928 9.51215 70.3189 9.87692C72.1728 10.2778 74.2741 10.9111 74.2741 13.3002C74.2741 14.9036 72.9191 17.0241 69.7061 17C67.3495 17 65.7037 16.034 64.7572 14.3344" fill="var(--fill-0, white)" fill-opacity="0.8"/>
<path id="Vector_6" d="M80.7862 11.6727L78.8851 13.7852V16.7755H76.4892V0H78.8851V10.9833L83.9716 5.28319H86.8899L82.479 10.2016L86.9999 16.7755H84.2897L80.7862 11.6727Z" fill="var(--fill-0, white)" fill-opacity="0.8"/>
<path id="Vector_7" d="M30.3734 5.05467C27.5258 5.05467 25.1416 6.93866 25.1416 10.0653V16.7755H27.5847V10.3619C27.5847 8.47792 28.6452 7.35154 30.4559 7.35154C32.2666 7.35154 33.17 8.47792 33.17 10.3619V16.7755H35.6012V10.0613C35.6012 6.93466 33.2171 5.05067 30.3695 5.05067" fill="var(--fill-0, white)" fill-opacity="0.8"/>
</g>
<defs>
<clipPath id="clip0_402_10">
<rect width="87" height="17" fill="white"/>
</clipPath>
</defs>
</svg>
