<svg preserveAspectRatio="none" width="100%" height="100%" overflow="visible" style="display: block;" viewBox="0 0 80 24.2697" fill="none" xmlns="http://www.w3.org/2000/svg">
<g id="logo-ncr" clip-path="url(#clip0_402_25)">
<path id="Vector" d="M48.7219 13.6417C48.7219 13.6417 48.5615 13.0195 48.5615 12.5583V5.34355H51.2959V19.2401L42.5415 11.5798C42.0731 11.1593 41.7959 10.6897 41.7959 10.6897C41.7959 10.6897 41.9347 11.2074 41.9347 11.6555L41.9323 18.9265H39.1963V5.08444L47.8703 12.5909C48.3355 13.0072 48.7219 13.6417 48.7219 13.6417Z" fill="var(--fill-0, white)" fill-opacity="0.8"/>
<path id="Vector_2" d="M73.4809 5.34484C77.8141 5.34484 78.9237 7.15054 78.9237 9.74582C78.9237 11.6268 77.6129 13.4697 74.9693 13.6878L74.6797 13.7026C74.6797 13.7026 74.9353 13.7503 75.2025 14.0221L80.0001 18.9261H76.2929L69.5953 11.74H72.9301C75.9173 11.74 76.0041 10.0768 76.0245 9.65748C76.0805 8.57794 75.7537 7.71482 73.4757 7.71482H69.6625V18.9261H66.8209V5.34484H73.4809Z" fill="var(--fill-0, white)" fill-opacity="0.8"/>
<path id="Vector_3" d="M52.526 12.3293C52.526 6.63956 57.0328 5.14453 60.8212 5.14453C62.338 5.14453 63.6812 5.28824 65.0948 5.60483L65.0988 8.49007C64.286 8.22589 62.6536 7.64597 60.8216 7.64597C57.23 7.64597 55.486 9.12029 55.486 12.3289C55.486 14.9571 57.366 16.6314 60.8216 16.6314C62.6536 16.6314 64.488 16.1707 65.3764 15.8245L65.3712 18.6235C63.9592 18.9384 62.3384 19.1328 60.8216 19.1328C56.7752 19.1332 52.526 17.0549 52.526 12.3293Z" fill="var(--fill-0, white)" fill-opacity="0.8"/>
<path id="Vector_4" d="M21.7549 5.694L24.4217 8.34803C24.3489 8.38227 24.2649 8.42454 24.1661 8.47695C24.0117 8.56191 23.8277 8.67561 23.6073 8.83708C23.1677 9.1562 22.5949 9.66596 21.8621 10.5016L16.6501 16.33C15.7569 17.3275 14.8493 18.1179 14.0053 18.536L11.3369 15.8811C11.4097 15.8452 11.4937 15.8054 11.5909 15.7505C11.7453 15.6672 11.9293 15.5518 12.1497 15.3929C12.5881 15.0708 13.1625 14.564 13.8961 13.7271L19.1069 7.90844C20.0005 6.91217 20.9097 6.11203 21.7549 5.694Z" fill="var(--fill-0, white)" fill-opacity="0.8"/>
<path id="Vector_5" d="M11.4316 19.7829C12.6104 19.7829 13.694 19.5361 14.4292 19.1332C14.7652 18.9481 15.2448 18.6294 15.6572 18.2896C16.068 17.951 16.6504 17.4235 17.1428 16.8702L22.36 11.0583C23.676 9.59369 24.4668 9.14142 24.9468 8.96347L27.6228 11.642C27.0644 12.2731 20.404 19.769 20.404 19.769C19.95 20.2872 19.4716 20.7872 19.1464 21.1021C18.834 21.4064 18.2996 21.86 18.0236 22.0734C16.4572 23.2861 14.3648 24.2697 11.5472 24.2697C5.1628 24.2697 0 18.7786 0 12.4557C0 4.61194 5.7996 0.0604783 11.0816 0.0604783C12.7008 0.00975623 14 0.297604 15.0272 0.666184C15.9764 1.00729 16.6932 1.41983 17.2132 1.70049C16.5984 2.11683 16.0036 2.6845 15.0232 3.79109L13.952 5.0063C13.7056 4.90613 12.6128 4.50331 11.21 4.54853C7.8208 4.65421 4.114 7.5572 4.2476 12.3196C4.372 16.7725 7.8456 19.7829 11.4316 19.7829Z" fill="var(--fill-0, white)" fill-opacity="0.8"/>
<path id="Vector_6" d="M21.296 5.13645C20.9588 5.32286 20.4804 5.64071 20.0656 5.98055C19.656 6.31912 19.074 6.84663 18.58 7.39866L13.364 13.2118C12.048 14.6764 11.2568 15.127 10.7772 15.3054L8.10122 12.6294C8.66122 11.9966 15.3204 4.502 15.3204 4.502C15.7756 3.98379 16.2528 3.48376 16.578 3.16759C16.8904 2.86326 17.4248 2.41141 17.7032 2.19626C19.2668 0.983585 21.362 0 24.1796 0C30.5636 0 35.724 5.49151 35.724 11.8127C35.724 19.659 29.9256 24.2079 24.6424 24.2079C23.0244 24.2599 21.724 23.9721 20.6984 23.6005C19.7468 23.2607 19.0272 22.8456 18.5084 22.5662C19.158 22.103 19.714 21.5949 20.702 20.4794L21.7716 19.2642C22.018 19.3627 23.1112 19.766 24.5152 19.722C27.9032 19.6151 31.6112 16.7091 31.4776 11.948C31.352 7.49714 27.876 4.48552 24.292 4.48552C23.1112 4.48552 22.0324 4.73364 21.296 5.13645Z" fill="var(--fill-0, white)" fill-opacity="0.8"/>
</g>
<defs>
<clipPath id="clip0_402_25">
<rect width="80" height="24.2697" fill="white"/>
</clipPath>
</defs>
</svg>
