<svg preserveAspectRatio="none" width="100%" height="100%" overflow="visible" style="display: block;" viewBox="0 0 54.2857 20" fill="none" xmlns="http://www.w3.org/2000/svg">
<g id="logo-ted">
<path id="logo-ted_2" d="M5.47515 5.10532H0L0 0H17.0162V5.10532H11.5399V20H5.47515V5.10532V5.10532ZM17.9578 0H34.5033V5.10532H24.0231V7.56799H34.5033V12.3721H24.0231V14.8947H34.5033V20H17.9578V0V0ZM35.5035 0H45.4542C51.9903 0 54.2857 4.92516 54.2857 9.97037C54.2857 16.0964 51.1056 20 44.2764 20H35.5035V0V0ZM41.5688 14.8947H43.9228C47.691 14.8947 48.2221 11.7722 48.2221 9.91043C48.2221 8.64862 47.81 5.16543 43.452 5.16543H41.5085L41.5688 14.8947V14.8947Z" fill="var(--fill-0, white)" fill-opacity="0.8"/>
</g>
</svg>
