<svg preserveAspectRatio="none" width="100%" height="100%" overflow="visible" style="display: block;" viewBox="0 0 143 13" fill="none" xmlns="http://www.w3.org/2000/svg">
<g id="logo-pacific-funds" clip-path="url(#clip0_402_33)">
<path id="Vector" d="M27.5986 12.198C27.5986 12.1014 27.5986 11.9565 27.5986 11.86C27.5441 11.86 24.0014 12.0531 22.2574 12.0531C19.9683 12.0531 16.6982 12.0049 16.6982 12.0049L1.65558 11.9083C1.65558 11.86 1.65558 11.6669 1.65558 11.6185L16.7527 11.5703C16.7527 11.5703 20.0228 11.6185 22.3119 11.6185C24.0559 11.6185 27.5441 11.6185 27.5986 11.6185C27.5986 11.4737 27.5441 11.2322 27.5441 11.0391C27.4896 11.0391 24.0014 11.2805 22.3119 11.2805C20.0228 11.2805 16.7527 11.1357 16.7527 11.1357H12.883L7.7598 10.9908H1.71008C1.71008 10.9425 1.76458 10.7494 1.76458 10.7011C1.98259 10.7494 2.1461 10.7977 2.90912 10.7977C3.89016 10.7977 4.32618 10.6045 4.32618 10.6045C4.32618 10.6045 5.03471 10.7977 5.96122 10.7977C6.39725 10.7977 7.37833 10.4113 7.97781 10.5562C8.95889 10.7977 9.34036 10.4113 9.34036 10.4113C9.34036 10.4113 9.55837 10.6528 9.9944 10.7494C10.3214 10.7977 10.7574 10.6045 10.7574 10.6045C10.7574 10.6045 11.3024 10.9425 12.883 10.9425C14.7906 10.9425 15.3356 10.0251 15.3356 10.0251H15.3901C15.3901 10.0251 15.3356 10.2665 15.4446 10.4597C15.6626 10.846 16.2621 10.8942 16.2621 10.8942C16.2076 9.83191 16.6982 9.1076 16.6982 9.1076H16.7527L16.6437 9.39728C16.4257 10.1699 16.8072 10.846 16.8072 10.846L16.9706 10.7494C16.9706 10.7494 16.8072 10.2665 16.9706 9.59044C17.1341 8.91444 17.4067 8.57638 17.4067 8.57638H17.5157C17.5157 8.57638 17.3522 9.1076 17.3522 9.49386C17.3522 9.83191 17.5702 10.6528 18.2787 10.8942C18.8237 11.0874 19.2598 10.6528 19.2598 10.6528C19.2598 10.6528 20.4588 10.9425 21.4399 10.9425C23.7834 10.9425 24.3285 10.6045 24.3285 10.6045C24.3285 10.6045 24.492 10.846 25.691 10.846C26.3995 10.846 26.9445 10.7977 27.2716 10.7494C27.3806 10.7494 27.4351 10.7494 27.4896 10.7011C27.4896 10.5079 27.4351 10.3631 27.3806 10.1699C26.7265 6.93459 24.601 4.1339 21.6579 2.34724L21.4944 2.78183C24.383 4.47191 26.5085 7.12775 27.108 10.2665C26.781 10.3631 26.2905 10.5079 25.691 10.5079C24.7645 10.5079 24.5465 10.2665 24.5465 10.2665C24.5465 10.2665 24.2194 10.4597 23.6199 10.4597C23.0749 10.4597 22.6934 10.1216 22.6934 10.1216C22.6934 10.1216 22.1483 10.6045 21.1673 10.6045C20.0228 10.6045 19.4233 9.97676 19.2052 9.68702C18.9872 9.39728 18.8782 9.15586 18.8782 9.15586H18.8237C18.8237 9.25244 18.8782 9.39728 18.9327 9.54218C19.0962 9.92849 19.2052 10.0251 19.2598 10.1216C19.3143 10.1699 19.3688 10.3148 19.2052 10.3631C19.0962 10.4113 19.0417 10.3148 18.9872 10.2665C18.9327 10.1699 18.7147 9.92849 18.6057 9.54218C18.4422 9.1076 18.4422 8.81786 18.3877 8.57638H18.2787C18.2242 8.76954 18.2242 9.1076 18.2242 9.49386C18.2787 9.92849 18.3877 10.2182 18.4422 10.3148C18.4422 10.3148 18.4968 10.3631 18.4968 10.4113C18.4968 10.5562 18.3877 10.6045 18.2787 10.6045C18.1697 10.6045 18.0607 10.5079 18.0062 10.4113C17.5157 9.68702 18.1152 8.23838 18.2787 7.80381C18.5512 7.17607 18.6057 6.54828 18.6057 6.54828C18.6057 6.54828 18.9327 6.06544 19.0962 5.72738C19.3143 5.29281 19.4778 4.90651 19.6413 4.76164C19.8593 4.56849 20.2408 4.08561 20.6223 3.45786C20.6768 3.36129 21.0038 2.68525 21.0583 2.54039C21.1128 2.44381 21.1673 2.29895 21.2218 2.20237C21.3854 1.62291 21.5489 0.946881 21.5489 0.850308C21.5489 0.705444 21.2763 0.608865 21.2763 0.608865C21.2763 0.608865 21.0038 0.512289 20.8403 0.512289C20.7313 0.512289 20.6223 0.608865 20.5133 0.657155C20.3498 0.705444 20.2953 0.657155 20.2953 0.657155C20.2953 0.657155 20.0773 0.560576 19.9683 0.608865C19.8593 0.608865 19.7503 0.753728 19.6413 0.753728C19.4778 0.802018 19.4233 0.802018 19.4233 0.802018C19.4233 0.802018 19.2597 0.753728 19.1507 0.753728C19.0417 0.802018 18.9327 0.850308 18.7147 0.995171C17.1887 0.512289 15.6081 0.270849 13.973 0.270849C6.50626 0.270849 0.402031 5.58254 0.293027 12.198C0.293027 12.2463 0.293027 12.536 0.293027 12.536H27.5986C27.5986 12.536 27.5986 12.2463 27.5986 12.198ZM10.2124 9.7836C10.1579 9.7836 10.2124 9.73533 10.1579 9.73533C10.5394 8.67296 11.4115 6.50001 12.8285 4.85822C12.992 4.90651 13.101 5.00308 13.2645 5.05137C12.229 6.06544 10.8664 8.04523 10.2124 9.7836ZM11.0299 10.1216C11.3024 9.15586 12.011 7.12775 13.5371 5.19623C13.7006 5.29281 13.8095 5.3411 13.973 5.4377C12.9375 6.64486 11.684 8.57638 11.1389 10.1699C11.0844 10.1699 11.0844 10.1216 11.0299 10.1216ZM12.12 10.3631C12.0655 10.3631 12.12 10.3631 12.0655 10.3631C12.2835 9.59044 12.883 7.56233 14.3001 5.58254C14.4636 5.67912 14.5726 5.72738 14.6816 5.82396C13.7006 7.12775 12.6105 8.91444 12.12 10.3631ZM13.1555 10.3631C13.101 10.3631 13.101 10.3631 13.101 10.3631C13.319 9.63876 13.8095 7.85207 15.0086 6.06544C15.1721 6.16201 15.3356 6.25859 15.3901 6.35517C14.5181 7.51407 13.5916 9.05928 13.1555 10.3631ZM16.7527 7.12775C16.4802 7.12775 16.0986 7.03117 15.9896 6.83801C16.0441 7.17607 16.4802 7.46575 16.8617 7.46575C16.7527 7.46575 16.6982 7.51407 16.5892 7.51407C16.0986 7.51407 15.6626 7.12775 15.6626 6.69317C15.6626 6.64486 15.6626 6.54828 15.6626 6.50001C16.0441 6.78975 16.8617 7.17607 17.3522 6.59659V6.64486C17.2977 6.88633 17.0251 7.12775 16.7527 7.12775ZM18.2787 5.24452C18.2787 5.38939 18.1697 5.4377 18.0607 5.48596C18.0062 5.53428 17.8427 5.58254 17.8427 5.6308H17.7882C17.7882 5.6308 17.7337 5.58254 17.6792 5.58254C17.6792 5.53428 17.6792 5.53428 17.6792 5.53428V5.48596V5.38939C17.6792 5.38939 17.6247 5.29281 17.6792 5.19623C17.6792 5.05137 17.8427 4.9548 17.8427 4.9548H17.8972C17.8972 4.9548 17.8427 5.05137 17.7882 5.14795C17.7882 5.19623 17.7337 5.3411 17.7882 5.4377V5.53428L17.8427 5.58254L17.8972 5.53428C18.0062 5.48596 18.0062 5.4377 18.0062 5.4377C18.0062 5.4377 17.8972 5.3411 17.9517 5.24452C18.0062 5.14795 18.1697 5.14795 18.1697 5.14795C18.2242 5.00308 18.1697 4.90651 18.1697 4.90651L18.2787 4.9548C18.2242 4.90651 18.2787 5.05137 18.2787 5.24452ZM18.9872 1.14003C19.1507 1.09174 19.2052 0.995171 19.3688 0.946881C19.5323 0.898592 19.6413 0.946881 19.7503 0.946881C19.8593 0.946881 20.0228 0.802018 20.1318 0.802018C20.2408 0.802018 20.2953 0.850308 20.4043 0.850308C20.4588 0.946881 20.7858 0.753728 20.8403 0.753728C20.8948 0.753728 21.1128 0.753728 21.0583 0.946881C21.0038 1.09174 20.8948 1.52634 20.6768 2.1058C20.6223 2.25066 20.5133 2.44381 20.4043 2.63697C20.2953 2.83012 20.1863 3.07156 20.0228 3.26471C19.4233 4.1339 18.8237 3.94074 17.6792 4.42363C16.7527 4.80993 16.3711 5.05137 16.2621 5.19623C16.1531 5.09966 16.0986 5.09966 15.9896 5.05137C16.1531 4.90651 16.5347 4.66506 17.2977 4.32705C18.1152 3.94074 19.4778 3.45786 19.7503 3.02327C19.7503 2.97498 19.7503 2.97498 19.7503 2.92669C19.4233 3.11985 19.1507 3.21642 19.0417 3.313C17.7337 3.89246 17.2432 4.03732 16.6437 4.32705C16.3712 4.47191 15.9351 4.66506 15.6626 4.85822C15.6081 4.80993 15.4991 4.76164 15.4446 4.71335C15.7171 4.5202 16.0986 4.32705 16.4802 4.1339C17.0796 3.89246 17.5702 3.65102 18.9872 2.92669C19.0962 2.8784 19.8048 2.4921 20.3498 2.1058C20.3498 2.05751 20.3498 2.00922 20.4043 1.96094C19.9138 2.20237 18.3332 2.97498 18.0062 3.11985C16.6982 3.69931 16.7527 3.65102 16.1531 3.94074C15.7716 4.1339 15.3901 4.32705 15.1176 4.5202C15.0631 4.47191 14.9541 4.42363 14.8996 4.37534C15.2266 4.18219 15.4991 3.98903 15.9351 3.79588C16.5347 3.50615 16.5892 3.45786 17.9517 2.8784C18.6057 2.58868 19.8048 1.86436 20.4588 1.52634C20.4588 1.47805 20.4588 1.47805 20.4588 1.42977C19.8048 1.76778 17.8972 2.63697 17.6247 2.78183C16.3166 3.313 16.1531 3.36129 15.5536 3.65102C15.2266 3.79588 14.8996 3.98903 14.6271 4.1339C14.5726 4.08561 14.5181 4.03732 14.4636 3.98903C14.6816 3.84417 15.0631 3.60273 15.5536 3.36129C16.1531 3.07156 16.2621 3.02327 17.5702 2.44381C17.7337 2.39553 18.3877 2.05751 18.9872 1.71949C19.1507 1.62291 19.3688 1.52634 19.5323 1.42977C19.6958 1.33319 19.8048 1.23661 19.9138 1.18832L19.8593 1.14003C19.5868 1.23661 19.2052 1.42976 19.0962 1.47805C18.3877 1.81607 17.5157 2.20237 17.2432 2.29895C15.9351 2.8784 15.7716 2.92669 15.1721 3.21642C14.8451 3.36129 14.4636 3.55444 14.2455 3.74759C14.191 3.69931 14.1365 3.65102 14.082 3.60273C14.3546 3.40957 14.7361 3.16814 15.1721 2.97498C15.7716 2.68525 15.8806 2.63697 17.1887 2.05751C17.4067 1.96094 17.6247 1.86436 17.7882 1.76778C17.8427 1.76778 18.4422 1.47805 18.9872 1.14003ZM14.5181 0.850308C15.7716 0.850308 17.0251 0.995171 18.1697 1.33319C17.9517 1.47805 17.6247 1.62291 17.1887 1.81607C15.6626 2.4921 15.4991 2.54039 14.8451 2.83012C14.4091 3.02327 14.082 3.21642 13.8095 3.40957C13.8095 3.40957 13.5371 3.07156 13.3735 2.97498C13.21 2.8784 12.8285 2.78183 12.7195 2.73354C12.5015 2.63697 12.447 2.54039 12.12 2.44381C11.8475 2.34724 11.6295 2.39553 11.466 2.39553C11.3024 2.34724 11.1389 2.29895 10.8664 2.29895C10.7029 2.29895 10.4849 2.39553 10.3214 2.39553C10.1034 2.39553 9.9399 2.34724 9.77639 2.34724C9.61288 2.39553 9.39486 2.54039 9.17684 2.54039C9.01333 2.58868 8.79537 2.54039 8.68636 2.54039C8.57736 2.58868 8.30484 2.78183 8.14132 2.83012C8.03232 2.8784 7.70529 2.8784 7.7598 3.11985C7.7598 3.313 8.25033 3.36129 8.25033 3.36129C8.25033 3.36129 10.3759 3.60273 12.447 4.56849C12.1745 4.90651 11.8475 5.24452 11.6295 5.6308C11.466 5.58254 11.2479 5.53428 11.1389 5.53428C10.9209 5.53428 10.7029 5.6308 10.5394 5.58254C10.2124 5.58254 10.2124 5.53428 9.83089 5.58254C9.55837 5.6308 9.55837 5.67912 9.34036 5.72738C9.17684 5.7757 9.01333 5.72738 8.74087 5.7757C8.63186 5.82396 8.41384 6.01712 8.25033 6.06544C8.14132 6.1137 7.92331 6.1137 7.7598 6.21028C7.65079 6.30686 7.65079 6.40344 7.37832 6.50001C7.21481 6.59659 7.1058 6.54828 6.94229 6.69317C6.83328 6.88633 6.83328 7.03117 6.56076 7.22433C6.23374 7.46575 6.23374 7.65891 6.28824 7.70723C6.39725 7.90038 6.88779 7.70723 6.88779 7.70723C6.88779 7.70723 8.63186 7.17607 10.7029 7.07949C10.1579 8.04523 9.72188 8.9627 9.44936 9.59044C9.39486 9.73533 9.34036 9.88018 9.28585 9.97676C9.23135 9.97676 9.23135 9.97676 9.23135 9.97676C9.12234 9.88018 9.12234 9.73534 9.17684 9.39728C9.23135 9.05928 9.55837 8.38323 9.66738 8.23838H9.55837C9.44936 8.38323 9.12234 8.91444 9.06783 9.01102C8.95889 9.20418 8.90438 9.25244 8.68636 9.68702C8.63186 9.7836 8.52285 9.97676 8.35934 9.97676C8.25033 9.97676 8.14132 9.92849 8.14132 9.83191C8.14132 9.7836 8.19583 9.68702 8.25033 9.68702C8.52285 9.3007 8.74087 8.91444 8.79537 8.72128H8.68636C8.68636 8.72128 7.92331 10.2665 6.28824 10.2665C5.74324 10.2665 5.14371 10.0251 5.14371 10.0251C5.14371 10.0251 4.38068 10.3148 3.34514 10.3148C2.52761 10.3148 2.03709 10.1699 1.81908 10.1216C2.96363 4.90651 8.03232 0.850308 14.5181 0.850308Z" fill="var(--fill-0, white)" fill-opacity="0.8"/>
<path id="Vector_2" d="M52.3423 12.2463L52.2333 12.198C51.5792 11.9083 51.3612 11.0874 51.0342 10.363L47.7096 2.54038H44.5485V2.78182L44.712 2.83011C44.712 2.83011 44.8755 2.87839 44.93 2.92668C45.0935 3.02325 45.257 3.21641 45.0389 3.69929C45.0389 3.94073 44.93 4.13388 44.93 4.13388L42.3139 10.363C42.0413 11.0391 41.8233 11.9083 41.1693 12.198L40.9513 12.2946V12.536H44.494V12.2946L44.2214 12.198C43.8944 12.1014 43.8399 11.8117 44.1669 10.9908L44.5485 9.88015H48.3091C48.4181 10.1216 48.5271 10.4596 48.6906 10.9425C48.8541 11.4254 49.1266 12.0532 48.7451 12.2463L48.5271 12.3428V12.5843H52.3423V12.2463ZM47.7641 8.23836H45.257L46.5106 5.14794L47.7641 8.23836Z" fill="var(--fill-0, white)" fill-opacity="0.8"/>
<path id="Vector_3" d="M75.3428 2.54038V2.78182L75.6153 2.87839C76.0514 3.02325 75.9969 3.94073 75.9969 4.52019V10.5562C75.9969 11.0391 75.9969 12.0532 75.6153 12.198L75.3428 12.2946V12.536H78.9395V12.2946L78.667 12.198C78.2309 12.0532 78.2855 11.0391 78.2855 10.5562V4.52019C78.2855 3.69929 78.3945 2.97497 78.667 2.87839L78.9395 2.78182V2.54038H75.3428Z" fill="var(--fill-0, white)" fill-opacity="0.8"/>
<path id="Vector_4" d="M61.8252 2.54038V2.78182L62.0978 2.87839C62.5338 3.02325 62.4793 3.94073 62.4793 4.52019V10.5562C62.4793 11.0391 62.4793 12.0532 62.0978 12.198L61.8252 12.2946V12.536H65.4225V12.2946L65.15 12.198C64.714 12.0532 64.7685 11.0391 64.7685 10.5562V4.52019C64.7685 3.69929 64.8775 2.97497 65.15 2.87839L65.4225 2.78182V2.54038H61.8252Z" fill="var(--fill-0, white)" fill-opacity="0.8"/>
<path id="Vector_5" d="M41.606 1.67119C40.7885 0.946869 39.5349 0.560563 38.1724 0.560563H33.5397V0.802005L33.7577 0.850295C34.3573 1.09173 34.3028 2.39551 34.3028 3.36127V9.68699V9.92847C34.3028 10.6528 34.3028 11.9566 33.7577 12.1497L33.5397 12.2463V12.4877H37.7909V12.2463L37.6274 12.1497C36.8643 11.7151 36.8643 10.7494 36.8643 9.73531V7.61062L37.3004 7.75552C37.3004 7.75552 38.0089 7.99694 38.6629 7.99694C40.625 7.99694 42.7505 6.78972 42.7505 4.18217C42.7505 3.21641 42.3691 2.34722 41.606 1.67119ZM37.4639 7.07946L37.0824 7.12772H36.8643V2.63696C37.1369 2.58867 37.4639 2.58867 37.8999 2.58867C38.7719 2.58867 39.4804 2.78182 39.8619 3.16812C40.2435 3.50614 40.407 3.94073 40.407 4.56848C40.407 6.06541 38.8809 6.98288 37.4639 7.07946Z" fill="var(--fill-0, white)" fill-opacity="0.8"/>
<path id="Vector_6" d="M99.5421 0.560566H97.6345H92.184V0.850292L92.5111 0.946872C93.0016 1.14002 93.0016 2.25065 93.0016 2.8784V10.1216C93.0016 10.7011 93.0016 11.9083 92.5111 12.1014L92.184 12.198V12.4877H96.2719V12.198L95.9448 12.1014C95.4543 11.9083 95.4543 10.7494 95.4543 10.1216V7.75547H97.8525C97.8525 7.75547 98.8881 7.65889 99.0516 8.04521L99.1061 8.1901L99.3786 8.23837L99.5421 5.05136H99.1606L99.1061 5.24451C98.9971 5.48594 98.0705 5.58252 97.798 5.53426H95.3998C95.3998 4.4719 95.3998 3.16812 95.3998 2.58866H98.343C99.0516 2.58866 99.4331 2.73353 99.5421 3.07155L99.596 3.2647H99.923L100.686 0.4157C100.795 0.512277 99.814 0.560566 99.5421 0.560566Z" fill="var(--fill-0, white)" fill-opacity="0.8"/>
<path id="Vector_7" d="M60.6262 9.83186L60.5717 9.88018C60.4627 9.97676 60.3536 10.025 60.3536 10.025C59.6996 10.4113 58.6095 10.8459 57.5197 10.8459C56.6477 10.8459 55.9392 10.6045 55.3396 10.1216C54.6311 9.49386 54.2496 8.47981 54.2496 7.32091C54.2496 5.48596 55.4486 4.23045 57.1927 4.23045C58.0103 4.23045 58.8275 4.47189 59.6451 4.95477L59.8631 5.09963L60.2991 5.34108V4.90648V2.92667V2.73352L59.9721 2.68523C58.882 2.44379 58.0103 2.29892 57.2472 2.29892C55.7211 2.29892 54.4131 2.7818 53.4321 3.651C52.3965 4.56847 51.797 5.9688 51.797 7.51402C51.797 9.10755 52.342 10.4113 53.3776 11.3288C54.4131 12.2463 55.9392 12.7292 57.6832 12.7292C58.5552 12.7292 59.3726 12.5843 60.0266 12.2463H60.0811L60.1901 12.198L60.2446 12.1014L61.0077 9.7836H60.6262V9.83186Z" fill="var(--fill-0, white)" fill-opacity="0.8"/>
<path id="Vector_8" d="M88.4772 9.83186L88.1501 10.025C87.4961 10.4113 86.406 10.8459 85.3159 10.8459C84.4439 10.8459 83.7353 10.6045 83.1358 10.1216C82.4272 9.49386 82.0457 8.47981 82.0457 7.32091C82.0457 5.48596 83.2448 4.23045 84.9889 4.23045C85.8065 4.23045 86.624 4.47189 87.4416 4.95477L88.0956 5.34108V2.92667V2.73352L87.8231 2.68523C86.733 2.44379 85.861 2.29892 85.0979 2.29892C83.5718 2.29892 82.2637 2.7818 81.2826 3.651C80.2471 4.56847 79.6475 5.9688 79.6475 7.51402C79.6475 9.10755 80.1926 10.4113 81.2281 11.3288C82.2637 12.2463 83.7898 12.7292 85.5339 12.7292C86.406 12.7292 87.2236 12.5843 87.8776 12.2463L88.0411 12.198L88.8587 9.7836H88.4772V9.83186Z" fill="var(--fill-0, white)" fill-opacity="0.8"/>
<path id="Vector_9" d="M73.4346 2.5403H70.4374H66.8402V2.78175L67.1127 2.87832C67.5487 3.02318 67.4942 3.94066 67.4942 4.52012V10.5561C67.4942 11.039 67.4942 12.0531 67.1127 12.198L66.8402 12.2945V12.536H70.4374V12.2945L70.1649 12.198C69.7289 12.0531 69.7834 11.039 69.7834 10.5561V8.57632H71.7455C71.7455 8.57632 72.617 8.52805 72.726 8.81774L72.7805 8.96263L72.9985 9.01089L73.162 6.35505H72.8895L72.835 6.49995C72.7805 6.6931 71.9635 6.78968 71.7455 6.74137H69.7289C69.7289 5.87221 69.7289 4.76156 69.7289 4.27867H72.399C72.9985 4.27867 73.3256 4.42354 73.4346 4.66498L73.4891 4.80984H73.7616L74.4156 2.44373C74.5246 2.44373 73.6526 2.5403 73.4346 2.5403Z" fill="var(--fill-0, white)" fill-opacity="0.8"/>
<path id="Vector_10" d="M119.652 2.5404V2.78184L119.87 2.87842C120.361 3.16814 120.415 3.60274 120.415 4.42364V9.011C118.889 7.07947 115.511 2.49211 115.511 2.49211H112.894V2.73355L113.112 2.83013C113.603 3.11986 113.657 3.60274 113.657 4.42364V10.4114C113.657 11.2323 113.657 11.86 113.112 12.1497L112.949 12.2463V12.4877H116.274V12.2463L116.056 12.1497C115.565 12.0532 115.565 11.2323 115.565 10.4114V6.06542L118.835 10.2182C119.434 10.9908 120.415 12.1014 121.451 12.3912C122.268 12.6326 122.432 12.5843 122.432 12.5843V4.47193C122.432 3.65103 122.432 3.16814 122.977 2.87842L123.195 2.78184V2.5404H119.652Z" fill="var(--fill-0, white)" fill-opacity="0.8"/>
<path id="Vector_11" d="M133.06 3.98905C131.97 3.02328 130.335 2.49211 128.319 2.49211H124.231V2.73355L124.449 2.78184L124.558 2.83013C125.048 2.97499 124.939 3.98905 124.939 4.52022V10.5562C124.939 11.2805 124.939 11.9083 124.34 12.2463L124.176 12.3429V12.5361H128.209C131.915 12.5361 134.531 10.4596 134.531 7.46579C134.531 6.06542 134.041 4.85823 133.06 3.98905ZM131.152 10.0251C130.389 10.6528 129.354 11.0391 128.046 11.0391C127.773 11.0391 127.61 10.9908 127.283 10.9425V4.1822C127.719 4.08562 127.937 4.03733 128.319 4.03733C129.572 4.03733 130.498 4.32706 131.152 4.90652C131.806 5.486 132.133 6.45173 132.133 7.61063C132.133 8.57642 131.752 9.44558 131.152 10.0251Z" fill="var(--fill-0, white)" fill-opacity="0.8"/>
<path id="Vector_12" d="M110.877 10.701V4.42361C110.877 3.69929 110.877 3.02325 111.422 2.87839L111.64 2.83011L111.477 2.54038H107.77V2.78182L107.988 2.83011C108.533 3.02325 108.479 3.79587 108.479 4.32704V9.10757C108.479 9.59041 108.479 9.83189 108.206 10.1699C107.77 10.701 106.953 11.0391 106.081 11.0391C105.373 11.0391 104.882 10.8942 104.501 10.5562C104.01 10.1699 103.792 9.44557 103.792 8.5281V4.27875C103.792 3.69929 103.792 2.92668 104.283 2.78182L104.501 2.73353V2.54038H100.685V2.78182L100.903 2.83011C101.394 2.97497 101.449 3.89245 101.394 4.61677V8.72126C101.394 9.73531 101.394 10.7494 102.321 11.6668C103.084 12.3912 104.228 12.7775 105.536 12.7775C106.462 12.7775 107.607 12.3428 108.424 11.7634V12.536H111.531V12.2946L111.313 12.2463C110.877 12.0532 110.823 11.4254 110.877 10.701Z" fill="var(--fill-0, white)" fill-opacity="0.8"/>
<path id="Vector_13" d="M142.707 9.4939C142.707 10.2665 142.325 11.0391 141.617 11.6186C140.799 12.3429 139.655 12.7292 138.401 12.7292C137.42 12.7292 136.493 12.5843 135.621 12.2946H135.567L135.458 12.2463V12.1497V12.1014L135.022 10.3148L134.967 10.0251L134.913 9.78364H135.185L135.567 10.1699C136.384 10.846 137.529 11.1357 138.565 11.1357C139.273 11.1357 140.309 10.7011 140.309 9.97674C140.309 9.15585 139.437 8.76959 138.292 8.28669C136.93 7.70721 135.294 6.9829 135.294 5.14796C135.294 3.07157 137.475 2.34724 139.328 2.34724C140.145 2.34724 140.908 2.44382 141.617 2.68526H141.671L141.835 2.73355V2.87841V2.9267V4.18219V4.61679V4.90652L141.453 4.66507L141.072 4.47192C140.745 4.27877 139.927 3.98904 139.219 3.98904C138.946 3.98904 138.347 4.03733 137.965 4.37535C137.802 4.52021 137.693 4.71336 137.693 5.00309C137.693 5.72742 138.674 6.162 139.709 6.59658C141.017 7.17606 142.707 7.90037 142.707 9.4939Z" fill="var(--fill-0, white)" fill-opacity="0.8"/>
</g>
<defs>
<clipPath id="clip0_402_33">
<rect width="143" height="13" fill="white"/>
</clipPath>
</defs>
</svg>
