<svg preserveAspectRatio="none" width="100%" height="100%" overflow="visible" style="display: block;" viewBox="0 0 38.1768 22.7961" fill="none" xmlns="http://www.w3.org/2000/svg">
<g id="nest">
<path id="Combined Shape" fill-rule="evenodd" clip-rule="evenodd" d="M10.3519 15.6923L13.6927 19.1058L10.9058 22.0742C10.0021 23.0367 8.53653 23.0367 7.6328 22.0742L0.677796 14.6667C-0.225932 13.7038 -0.225932 12.1433 0.677796 11.1807C1.58181 10.2182 3.04705 10.2182 3.95078 11.1807L9.26929 16.8453L10.3519 15.6923ZM11.2203 14.7673L14.1793 11.6158L17.452 15.1017L14.7273 18.0038L11.2203 14.7673Z" fill="var(--fill-0, #CECCD3)"/>
<path id="Combined Shape_2" fill-rule="evenodd" clip-rule="evenodd" d="M24.6085 17.9383L21.1213 14.6805L29.316 5.95256C30.2198 4.99003 31.685 4.99003 32.589 5.95256C33.4927 6.91509 33.4927 8.47566 32.589 9.4385L24.6085 17.9383ZM23.524 19.0933L20.7254 22.074C19.8214 23.0365 18.3562 23.0365 17.4524 22.074L5.58766 9.43727C4.68393 8.47443 4.68393 6.91386 5.58766 5.95133C6.49139 4.98849 7.95662 4.98849 8.86064 5.95133L19.0889 16.8451L20.2393 15.6199L23.524 19.0933Z" fill="var(--fill-0, #CECCD3)"/>
<path id="Combined Shape_3" fill-rule="evenodd" clip-rule="evenodd" d="M19.5801 13.8812L22.8376 10.379L28.9087 16.8451L34.226 11.1818C35.13 10.2193 36.5953 10.2193 37.499 11.1818C38.4027 12.1446 38.4027 13.7052 37.499 14.6677L30.5452 22.074C29.6414 23.0366 28.1762 23.0366 27.2725 22.074L19.5801 13.8812ZM18.2307 12.4439L10.4976 4.20776C9.59392 3.24523 9.59392 1.68466 10.4976 0.722128C11.4017 -0.240709 12.8669 -0.240709 13.7706 0.722128L21.5117 8.96682L18.2307 12.4439Z" fill="var(--fill-0, #CECCD3)"/>
<path id="bg" fill-rule="evenodd" clip-rule="evenodd" d="M27.6792 0.723351C26.7755 -0.239179 25.3103 -0.239179 24.4063 0.723351L14.1791 11.6159L17.4521 15.1018L27.6792 4.20929C28.583 3.24645 28.583 1.68588 27.6792 0.723351Z" fill="var(--fill-0, #CECCD3)"/>
</g>
</svg>
